<?xml version="1.0" encoding="UTF-8"?>
<svg xmlns="http://www.w3.org/2000/svg" xmlns:xlink="http://www.w3.org/1999/xlink" width="200px" height="240px" viewBox="0 0 200 240" version="1.1">
<g id="surface1">
<path style=" stroke:none;fill-rule:nonzero;fill:rgb(92.941176%,92.156863%,92.941176%);fill-opacity:1;" d="M 40.503906 176.363281 L 40.503906 228.96875 C 40.503906 233.121094 43.308594 236.484375 46.769531 236.484375 L 153.230469 236.484375 C 156.691406 236.484375 159.496094 233.121094 159.496094 228.96875 L 159.496094 176.363281 Z M 40.503906 176.363281 "/>
<path style=" stroke:none;fill-rule:nonzero;fill:rgb(85.882353%,85.098039%,86.27451%);fill-opacity:1;" d="M 40.503906 176.363281 L 159.492188 176.363281 L 159.492188 187.636719 L 40.503906 187.636719 Z M 40.503906 176.363281 "/>
<path style=" stroke:none;fill-rule:nonzero;fill:rgb(29.411765%,24.705882%,30.588235%);fill-opacity:1;" d="M 21.71875 82.425781 C 18.257812 82.425781 15.453125 85.789062 15.453125 89.941406 C 15.453125 94.089844 18.257812 97.453125 21.71875 97.453125 C 25.175781 97.453125 27.980469 100.820312 27.980469 104.96875 L 27.980469 74.910156 C 27.980469 79.058594 25.175781 82.425781 21.71875 82.425781 Z M 21.71875 82.425781 "/>
<path style=" stroke:none;fill-rule:nonzero;fill:rgb(29.411765%,24.705882%,30.588235%);fill-opacity:1;" d="M 178.28125 82.425781 C 174.824219 82.425781 172.019531 79.058594 172.019531 74.910156 L 172.019531 104.96875 C 172.019531 100.820312 174.824219 97.457031 178.28125 97.457031 C 181.742188 97.457031 184.546875 94.089844 184.546875 89.941406 C 184.546875 85.789062 181.742188 82.425781 178.28125 82.425781 Z M 178.28125 82.425781 "/>
<path style=" stroke:none;fill-rule:nonzero;fill:rgb(43.529412%,39.607843%,44.313725%);fill-opacity:1;" d="M 159.496094 176.363281 L 40.503906 176.363281 C 33.585938 176.363281 27.980469 169.632812 27.980469 161.332031 L 27.980469 18.546875 C 27.980469 10.246094 33.585938 3.515625 40.503906 3.515625 L 159.496094 3.515625 C 166.414062 3.515625 172.019531 10.246094 172.019531 18.546875 L 172.019531 161.335938 C 172.019531 169.632812 166.414062 176.363281 159.496094 176.363281 Z M 159.496094 176.363281 "/>
<path style=" stroke:none;fill-rule:nonzero;fill:rgb(36.470588%,32.54902%,37.647059%);fill-opacity:1;" d="M 162.625 146.304688 L 162.625 22.304688 C 162.625 18.152344 159.824219 14.789062 156.363281 14.789062 L 53.03125 14.789062 C 51.300781 14.789062 49.898438 13.105469 49.898438 11.03125 L 49.898438 3.515625 L 40.503906 3.515625 C 33.585938 3.515625 27.980469 10.246094 27.980469 18.546875 L 27.980469 161.335938 C 27.980469 169.636719 33.585938 176.363281 40.503906 176.363281 L 159.496094 176.363281 C 166.414062 176.363281 172.019531 169.636719 172.019531 161.335938 L 172.019531 150.0625 L 165.757812 150.0625 C 164.027344 150.0625 162.625 148.378906 162.625 146.304688 Z M 162.625 146.304688 "/>
<path style=" stroke:none;fill-rule:nonzero;fill:rgb(92.941176%,92.156863%,92.941176%);fill-opacity:1;" d="M 43.636719 22.304688 L 156.363281 22.304688 L 156.363281 157.574219 L 43.636719 157.574219 Z M 43.636719 22.304688 "/>
<path style=" stroke:none;fill-rule:nonzero;fill:rgb(36.470588%,32.54902%,37.647059%);fill-opacity:1;" d="M 53.03125 176.363281 L 53.03125 202.667969 C 53.03125 204.742188 54.433594 206.425781 56.160156 206.425781 L 143.839844 206.425781 C 145.566406 206.425781 146.96875 204.742188 146.96875 202.667969 L 146.96875 176.363281 Z M 53.03125 176.363281 "/>
<path style=" stroke:none;fill-rule:nonzero;fill:rgb(29.411765%,24.705882%,30.588235%);fill-opacity:1;" d="M 53.03125 176.363281 L 146.96875 176.363281 L 146.96875 187.636719 L 53.03125 187.636719 Z M 53.03125 176.363281 "/>
<path style=" stroke:none;fill-rule:nonzero;fill:rgb(36.470588%,32.54902%,37.647059%);fill-opacity:1;" d="M 134.445312 86.183594 L 65.554688 86.183594 C 63.828125 86.183594 62.425781 84.5 62.425781 82.425781 L 62.425781 67.394531 C 62.425781 65.320312 63.828125 63.636719 65.554688 63.636719 L 134.445312 63.636719 C 136.175781 63.636719 137.574219 65.320312 137.574219 67.394531 L 137.574219 82.425781 C 137.574219 84.5 136.175781 86.183594 134.445312 86.183594 Z M 134.445312 86.183594 "/>
<path style=" stroke:none;fill-rule:nonzero;fill:rgb(78.823529%,77.647059%,79.215686%);fill-opacity:1;" d="M 74.949219 112.488281 C 74.949219 116.636719 72.144531 120 68.6875 120 C 65.230469 120 62.425781 116.636719 62.425781 112.488281 C 62.425781 108.335938 65.230469 104.972656 68.6875 104.972656 C 72.144531 104.972656 74.949219 108.335938 74.949219 112.488281 Z M 74.949219 112.488281 "/>
<path style=" stroke:none;fill-rule:nonzero;fill:rgb(78.823529%,77.647059%,79.215686%);fill-opacity:1;" d="M 137.574219 112.488281 C 137.574219 116.636719 134.769531 120 131.3125 120 C 127.855469 120 125.050781 116.636719 125.050781 112.488281 C 125.050781 108.335938 127.855469 104.972656 131.3125 104.972656 C 134.769531 104.972656 137.574219 108.335938 137.574219 112.488281 Z M 137.574219 112.488281 "/>
<path style=" stroke:none;fill-rule:nonzero;fill:rgb(90.196078%,39.215686%,43.137255%);fill-opacity:1;" d="M 106.261719 112.488281 C 106.261719 116.636719 103.457031 120 100 120 C 96.542969 120 93.738281 116.636719 93.738281 112.488281 C 93.738281 108.335938 96.542969 104.972656 100 104.972656 C 103.457031 104.972656 106.261719 108.335938 106.261719 112.488281 Z M 106.261719 112.488281 "/>
<path style=" stroke:none;fill-rule:nonzero;fill:rgb(90.196078%,39.215686%,43.137255%);fill-opacity:1;" d="M 134.445312 86.183594 L 125.050781 86.183594 L 125.050781 63.636719 L 134.445312 63.636719 C 136.171875 63.636719 137.574219 65.320312 137.574219 67.394531 L 137.574219 82.425781 C 137.574219 84.5 136.175781 86.183594 134.445312 86.183594 Z M 134.445312 86.183594 "/>
<path style=" stroke:none;fill-rule:nonzero;fill:rgb(85.882353%,85.098039%,86.27451%);fill-opacity:1;" d="M 90.605469 146.304688 C 69.855469 146.304688 53.03125 126.117188 53.03125 101.210938 L 53.03125 22.304688 L 43.636719 22.304688 L 43.636719 157.578125 L 156.363281 157.578125 L 156.363281 146.304688 Z M 90.605469 146.304688 "/>
<path style=" stroke:none;fill-rule:nonzero;fill:rgb(0%,0%,0%);fill-opacity:1;" d="M 178.28125 78.910156 C 176.445312 78.910156 174.949219 77.113281 174.949219 74.910156 L 174.949219 18.546875 C 174.949219 8.320312 168.015625 0 159.496094 0 L 40.503906 0 C 31.984375 0 25.050781 8.320312 25.050781 18.546875 L 25.050781 74.910156 C 25.050781 77.113281 23.554688 78.910156 21.71875 78.910156 C 16.648438 78.910156 12.523438 83.855469 12.523438 89.9375 C 12.523438 96.019531 16.648438 100.96875 21.71875 100.96875 C 23.554688 100.96875 25.050781 102.765625 25.050781 104.96875 L 25.050781 161.332031 C 25.050781 170.355469 30.449219 177.894531 37.574219 179.539062 L 37.574219 228.96875 C 37.574219 235.050781 41.699219 240 46.765625 240 L 153.230469 240 C 158.300781 240 162.425781 235.050781 162.425781 228.96875 L 162.425781 179.542969 C 169.550781 177.894531 174.949219 170.359375 174.949219 161.335938 L 174.949219 104.96875 C 174.949219 102.765625 176.445312 100.972656 178.28125 100.972656 C 183.351562 100.972656 187.472656 96.023438 187.472656 89.941406 C 187.476562 83.855469 183.351562 78.910156 178.28125 78.910156 Z M 21.71875 93.9375 C 19.878906 93.9375 18.382812 92.144531 18.382812 89.941406 C 18.382812 87.734375 19.878906 85.941406 21.71875 85.941406 C 22.894531 85.941406 24.015625 85.671875 25.050781 85.1875 L 25.050781 94.691406 C 24.015625 94.207031 22.894531 93.9375 21.71875 93.9375 Z M 153.230469 232.96875 L 46.769531 232.96875 C 44.929688 232.96875 43.433594 231.175781 43.433594 228.96875 L 43.433594 179.878906 L 50.101562 179.878906 L 50.101562 202.667969 C 50.101562 206.679688 52.820312 209.941406 56.160156 209.941406 L 143.839844 209.941406 C 147.179688 209.941406 149.898438 206.679688 149.898438 202.667969 L 149.898438 179.878906 L 156.566406 179.878906 L 156.566406 228.96875 C 156.566406 231.175781 155.070312 232.96875 153.230469 232.96875 Z M 68.886719 179.878906 L 68.886719 191.394531 C 68.886719 193.335938 70.199219 194.910156 71.816406 194.910156 C 73.4375 194.910156 74.746094 193.335938 74.746094 191.394531 L 74.746094 179.878906 L 87.675781 179.878906 L 87.675781 191.394531 C 87.675781 193.335938 88.988281 194.910156 90.605469 194.910156 C 92.222656 194.910156 93.535156 193.335938 93.535156 191.394531 L 93.535156 179.878906 L 106.464844 179.878906 L 106.464844 191.394531 C 106.464844 193.335938 107.777344 194.910156 109.394531 194.910156 C 111.011719 194.910156 112.324219 193.335938 112.324219 191.394531 L 112.324219 179.878906 L 125.253906 179.878906 L 125.253906 191.394531 C 125.253906 193.335938 126.5625 194.910156 128.183594 194.910156 C 129.800781 194.910156 131.113281 193.335938 131.113281 191.394531 L 131.113281 179.878906 L 144.039062 179.878906 L 144.039062 202.667969 C 144.039062 202.800781 143.949219 202.910156 143.839844 202.910156 L 56.160156 202.910156 C 56.050781 202.910156 55.960938 202.800781 55.960938 202.667969 L 55.960938 179.878906 Z M 169.089844 161.332031 C 169.089844 167.683594 164.785156 172.847656 159.496094 172.847656 L 40.503906 172.847656 C 35.214844 172.847656 30.910156 167.683594 30.910156 161.332031 L 30.910156 18.546875 C 30.910156 12.195312 35.214844 7.03125 40.503906 7.03125 L 159.496094 7.03125 C 164.785156 7.03125 169.089844 12.195312 169.089844 18.546875 Z M 178.28125 93.9375 C 177.105469 93.9375 175.984375 94.207031 174.949219 94.691406 L 174.949219 85.1875 C 175.984375 85.671875 177.105469 85.941406 178.28125 85.941406 C 180.121094 85.941406 181.617188 87.734375 181.617188 89.941406 C 181.617188 92.144531 180.121094 93.9375 178.28125 93.9375 Z M 178.28125 93.9375 "/>
<path style=" stroke:none;fill-rule:nonzero;fill:rgb(0%,0%,0%);fill-opacity:1;" d="M 137.574219 25.820312 C 139.195312 25.820312 140.503906 24.246094 140.503906 22.304688 C 140.503906 20.363281 139.195312 18.789062 137.574219 18.789062 L 43.636719 18.789062 C 42.019531 18.789062 40.707031 20.363281 40.707031 22.304688 L 40.707031 157.578125 C 40.707031 159.519531 42.019531 161.09375 43.636719 161.09375 L 49.898438 161.09375 C 51.515625 161.09375 52.828125 159.519531 52.828125 157.578125 C 52.828125 155.636719 51.515625 154.0625 49.898438 154.0625 L 46.566406 154.0625 L 46.566406 25.820312 Z M 137.574219 25.820312 "/>
<path style=" stroke:none;fill-rule:nonzero;fill:rgb(0%,0%,0%);fill-opacity:1;" d="M 156.363281 18.789062 L 150.101562 18.789062 C 148.484375 18.789062 147.171875 20.363281 147.171875 22.304688 C 147.171875 24.246094 148.484375 25.820312 150.101562 25.820312 L 153.433594 25.820312 L 153.433594 154.0625 L 62.425781 154.0625 C 60.804688 154.0625 59.496094 155.636719 59.496094 157.578125 C 59.496094 159.519531 60.804688 161.09375 62.425781 161.09375 L 156.363281 161.09375 C 157.980469 161.09375 159.292969 159.519531 159.292969 157.578125 L 159.292969 22.304688 C 159.292969 20.363281 157.980469 18.789062 156.363281 18.789062 Z M 156.363281 18.789062 "/>
<path style=" stroke:none;fill-rule:nonzero;fill:rgb(0%,0%,0%);fill-opacity:1;" d="M 140.503906 67.394531 C 140.503906 63.382812 137.785156 60.121094 134.445312 60.121094 L 65.554688 60.121094 C 62.214844 60.121094 59.496094 63.382812 59.496094 67.394531 L 59.496094 82.425781 C 59.496094 86.433594 62.214844 89.699219 65.554688 89.699219 L 134.445312 89.699219 C 137.785156 89.699219 140.503906 86.433594 140.503906 82.425781 Z M 90.40625 67.152344 L 97.070312 67.152344 L 97.070312 82.667969 L 90.40625 82.667969 Z M 84.546875 82.667969 L 77.878906 82.667969 L 77.878906 67.152344 L 84.546875 67.152344 Z M 102.929688 67.152344 L 109.59375 67.152344 L 109.59375 82.667969 L 102.929688 82.667969 Z M 115.453125 67.152344 L 122.121094 67.152344 L 122.121094 82.667969 L 115.453125 82.667969 Z M 65.355469 82.425781 L 65.355469 67.394531 C 65.355469 67.261719 65.445312 67.152344 65.554688 67.152344 L 72.019531 67.152344 L 72.019531 82.667969 L 65.554688 82.667969 C 65.445312 82.667969 65.355469 82.558594 65.355469 82.425781 Z M 134.644531 82.425781 C 134.644531 82.558594 134.554688 82.667969 134.445312 82.667969 L 127.980469 82.667969 L 127.980469 67.152344 L 134.445312 67.152344 C 134.554688 67.152344 134.644531 67.261719 134.644531 67.394531 Z M 134.644531 82.425781 "/>
<path style=" stroke:none;fill-rule:nonzero;fill:rgb(0%,0%,0%);fill-opacity:1;" d="M 59.496094 112.484375 C 59.496094 118.566406 63.617188 123.515625 68.6875 123.515625 C 73.753906 123.515625 77.878906 118.566406 77.878906 112.484375 C 77.878906 106.402344 73.753906 101.453125 68.6875 101.453125 C 63.617188 101.453125 59.496094 106.402344 59.496094 112.484375 Z M 72.019531 112.484375 C 72.019531 114.691406 70.523438 116.484375 68.6875 116.484375 C 66.847656 116.484375 65.355469 114.691406 65.355469 112.484375 C 65.355469 110.28125 66.847656 108.484375 68.6875 108.484375 C 70.523438 108.484375 72.019531 110.28125 72.019531 112.484375 Z M 72.019531 112.484375 "/>
<path style=" stroke:none;fill-rule:nonzero;fill:rgb(0%,0%,0%);fill-opacity:1;" d="M 131.3125 101.453125 C 126.246094 101.453125 122.121094 106.402344 122.121094 112.484375 C 122.121094 118.566406 126.246094 123.515625 131.3125 123.515625 C 136.382812 123.515625 140.503906 118.566406 140.503906 112.484375 C 140.503906 106.402344 136.382812 101.453125 131.3125 101.453125 Z M 131.3125 116.484375 C 129.476562 116.484375 127.980469 114.691406 127.980469 112.484375 C 127.980469 110.28125 129.476562 108.484375 131.3125 108.484375 C 133.152344 108.484375 134.644531 110.28125 134.644531 112.484375 C 134.644531 114.691406 133.152344 116.484375 131.3125 116.484375 Z M 131.3125 116.484375 "/>
<path style=" stroke:none;fill-rule:nonzero;fill:rgb(0%,0%,0%);fill-opacity:1;" d="M 90.808594 112.484375 C 90.808594 118.566406 94.929688 123.515625 100 123.515625 C 105.070312 123.515625 109.191406 118.566406 109.191406 112.484375 C 109.191406 106.402344 105.070312 101.453125 100 101.453125 C 94.929688 101.453125 90.808594 106.402344 90.808594 112.484375 Z M 103.332031 112.484375 C 103.332031 114.691406 101.835938 116.484375 100 116.484375 C 98.164062 116.484375 96.667969 114.691406 96.667969 112.484375 C 96.667969 110.28125 98.164062 108.484375 100 108.484375 C 101.835938 108.484375 103.332031 110.28125 103.332031 112.484375 Z M 103.332031 112.484375 "/>
</g>
</svg>
