<?xml version="1.0" encoding="UTF-8"?>
<svg xmlns="http://www.w3.org/2000/svg" xmlns:xlink="http://www.w3.org/1999/xlink" width="200px" height="240px" viewBox="0 0 200 240" version="1.1">
<defs>
<clipPath id="clip1">
  <rect x="0" y="0" width="200" height="240"/>
</clipPath>
<g id="surface5" clip-path="url(#clip1)">
<path style=" stroke:none;fill-rule:nonzero;fill:rgb(99.607843%,73.72549%,12.156863%);fill-opacity:1;" d="M 65.980469 154.738281 L 64.167969 156.007812 L 65.980469 157.230469 C 66.28125 157.457031 66.472656 157.773438 66.472656 158.042969 L 66.472656 161.03125 C 66.472656 161.304688 66.320312 161.578125 65.980469 161.800781 L 64.167969 163.070312 L 65.980469 164.339844 C 66.28125 164.566406 66.472656 164.835938 66.472656 165.109375 L 66.472656 168.097656 C 66.472656 168.367188 66.320312 168.640625 65.980469 168.867188 L 64.167969 170.132812 L 65.980469 171.402344 C 66.28125 171.628906 66.472656 171.902344 66.472656 172.171875 L 66.472656 175.160156 C 66.472656 175.433594 66.320312 175.703125 65.980469 175.929688 L 64.167969 177.199219 L 65.980469 178.464844 C 66.28125 178.691406 66.472656 178.964844 66.472656 179.238281 L 66.472656 182.226562 C 66.472656 182.496094 66.320312 182.8125 65.980469 183.039062 L 64.167969 184.308594 L 65.980469 185.53125 C 66.320312 185.757812 66.472656 186.074219 66.472656 186.347656 L 66.472656 189.335938 C 66.472656 189.605469 66.320312 189.878906 65.980469 190.105469 L 64.167969 191.371094 L 65.980469 192.59375 C 66.28125 192.820312 66.472656 193.09375 66.472656 193.410156 L 66.472656 196.398438 C 66.472656 196.671875 66.320312 196.941406 65.980469 197.167969 L 64.167969 198.4375 L 65.980469 199.660156 C 66.28125 199.886719 66.472656 200.15625 66.472656 200.472656 L 66.472656 203.464844 C 66.472656 203.734375 66.320312 204.007812 65.980469 204.234375 L 64.167969 205.5 L 65.980469 206.769531 C 66.28125 206.949219 66.472656 207.265625 66.472656 207.539062 L 66.472656 210.527344 C 66.472656 210.800781 66.320312 211.070312 65.980469 211.296875 L 58.960938 216.1875 C 58.320312 216.640625 57.300781 216.640625 56.660156 216.1875 L 39.605469 204.367188 C 39.300781 204.140625 39.113281 203.871094 39.113281 203.597656 L 39.113281 200.609375 C 39.113281 200.339844 39.265625 200.066406 39.605469 199.839844 L 41.414062 198.574219 L 39.605469 197.304688 C 39.300781 197.078125 39.113281 196.804688 39.113281 196.535156 L 39.113281 193.546875 C 39.113281 193.273438 39.265625 192.957031 39.605469 192.730469 L 41.378906 191.464844 L 39.605469 190.238281 C 39.300781 190.015625 39.113281 189.742188 39.113281 189.425781 L 39.113281 186.480469 C 39.113281 186.210938 39.265625 185.894531 39.605469 185.667969 L 41.414062 184.398438 L 39.605469 183.128906 C 39.300781 182.949219 39.113281 182.632812 39.113281 182.359375 L 39.113281 179.417969 C 39.113281 179.101562 39.265625 178.828125 39.605469 178.601562 L 41.414062 177.335938 L 39.605469 176.066406 C 39.300781 175.886719 39.113281 175.570312 39.113281 175.296875 L 39.113281 172.355469 C 39.113281 172.035156 39.265625 171.765625 39.605469 171.539062 L 41.414062 170.269531 L 39.605469 169.003906 C 39.300781 168.820312 39.113281 168.503906 39.113281 168.234375 L 39.113281 165.289062 C 39.113281 164.972656 39.265625 164.699219 39.605469 164.472656 L 41.414062 163.207031 L 39.605469 161.9375 C 39.300781 161.710938 39.113281 161.441406 39.113281 161.167969 L 39.113281 158.179688 C 39.113281 157.910156 39.265625 157.589844 39.605469 157.410156 L 41.414062 156.140625 L 39.605469 154.875 C 39.300781 154.648438 39.113281 154.375 39.113281 154.105469 L 39.113281 151.117188 C 39.113281 150.800781 39.265625 150.527344 39.605469 150.300781 L 41.378906 149.03125 L 39.605469 147.808594 C 39.300781 147.582031 39.113281 147.3125 39.113281 146.996094 L 39.113281 144.050781 C 39.113281 143.734375 39.265625 143.464844 39.605469 143.238281 L 46.621094 138.347656 C 47.265625 137.894531 48.28125 137.894531 48.886719 138.347656 L 65.980469 150.164062 C 66.28125 150.390625 66.472656 150.707031 66.472656 150.980469 L 66.472656 153.96875 C 66.472656 154.242188 66.320312 154.511719 65.980469 154.738281 Z M 65.980469 154.738281 "/>
</g>
<clipPath id="clip2">
  <rect x="0" y="0" width="200" height="240"/>
</clipPath>
<g id="surface8" clip-path="url(#clip2)">
<path style=" stroke:none;fill-rule:nonzero;fill:rgb(69.019608%,72.156863%,81.176471%);fill-opacity:1;" d="M 160.886719 180.820312 L 91.792969 228.6875 L 49.113281 198.933594 L 48.960938 127.886719 L 50.359375 126.933594 L 54.09375 124.351562 L 54.054688 116.15625 L 54.054688 108.503906 L 53.980469 67.523438 L 115.566406 24.820312 L 153.605469 51.355469 L 153.71875 104.882812 L 160.734375 109.773438 Z M 160.886719 180.820312 "/>
</g>
<clipPath id="clip3">
  <rect x="0" y="0" width="200" height="240"/>
</clipPath>
<g id="surface11" clip-path="url(#clip3)">
<path style=" stroke:none;fill-rule:nonzero;fill:rgb(61.960784%,66.27451%,78.823529%);fill-opacity:1;" d="M 48.960938 127.878906 L 49.101562 198.914062 L 91.773438 228.671875 L 91.632812 157.636719 Z M 48.960938 127.878906 "/>
<path style=" stroke:none;fill-rule:nonzero;fill:rgb(69.019608%,72.156863%,81.176471%);fill-opacity:1;" d="M 91.632812 157.636719 L 91.773438 228.671875 L 160.871094 180.800781 L 160.730469 109.761719 Z M 91.632812 157.636719 "/>
<path style=" stroke:none;fill-rule:nonzero;fill:rgb(78.823529%,80.784314%,88.627451%);fill-opacity:1;" d="M 160.734375 109.773438 L 91.640625 157.636719 L 59.792969 135.449219 L 54.546875 131.78125 L 50.359375 128.882812 L 48.960938 127.886719 L 50.359375 126.933594 L 54.09375 124.351562 L 56.28125 122.8125 L 68.886719 114.074219 L 72.207031 111.765625 L 72.886719 111.3125 L 92.019531 98.042969 L 118.054688 80.023438 L 120.359375 81.605469 L 123.90625 84.097656 L 125.265625 85.046875 L 126.019531 85.589844 L 131.265625 89.214844 L 136.167969 92.65625 L 142.132812 96.820312 L 147.074219 100.261719 L 153.71875 104.882812 Z M 160.734375 109.773438 "/>
</g>
<clipPath id="clip4">
  <rect x="0" y="0" width="200" height="240"/>
</clipPath>
<g id="surface14" clip-path="url(#clip4)">
<path style=" stroke:none;fill-rule:nonzero;fill:rgb(61.960784%,66.27451%,78.823529%);fill-opacity:1;" d="M 92.132812 152.699219 L 59.867188 130.238281 L 55.039062 126.890625 L 54.09375 126.210938 L 54.09375 124.351562 L 54.054688 116.15625 L 54.054688 108.503906 L 53.980469 67.523438 L 92.019531 94.015625 L 92.019531 98.042969 Z M 92.132812 152.699219 "/>
<path style=" stroke:none;fill-rule:nonzero;fill:rgb(69.019608%,72.156863%,81.176471%);fill-opacity:1;" d="M 92.011719 94.023438 L 92.140625 152.71875 L 153.722656 110.050781 L 153.597656 51.359375 Z M 92.011719 94.023438 "/>
<path style=" stroke:none;fill-rule:nonzero;fill:rgb(78.823529%,80.784314%,88.627451%);fill-opacity:1;" d="M 53.984375 67.503906 L 92.011719 94.023438 L 153.597656 51.359375 L 115.566406 24.839844 Z M 53.984375 67.503906 "/>
<path style=" stroke:none;fill-rule:nonzero;fill:rgb(69.019608%,72.156863%,81.176471%);fill-opacity:1;" d="M 59.21875 67.5 L 62.859375 70.046875 L 115.570312 33.53125 L 115.570312 28.464844 Z M 59.21875 67.5 "/>
<path style=" stroke:none;fill-rule:nonzero;fill:rgb(61.960784%,66.27451%,78.823529%);fill-opacity:1;" d="M 115.570312 28.464844 L 115.570312 33.53125 L 144.714844 53.878906 L 148.359375 51.363281 Z M 115.570312 28.464844 "/>
<path style=" stroke:none;fill-rule:nonzero;fill:rgb(100%,100%,100%);fill-opacity:1;" d="M 62.859375 70.046875 L 92.007812 90.394531 L 144.714844 53.878906 L 115.570312 33.53125 Z M 62.859375 70.046875 "/>
</g>
<clipPath id="clip5">
  <rect x="0" y="0" width="200" height="240"/>
</clipPath>
<g id="surface17" clip-path="url(#clip5)">
<path style=" stroke:none;fill-rule:nonzero;fill:rgb(99.607843%,73.72549%,12.156863%);fill-opacity:1;" d="M 66.460938 207.542969 L 66.460938 210.527344 C 66.460938 210.804688 66.300781 211.082031 65.984375 211.308594 L 58.957031 216.203125 C 58.320312 216.652344 57.308594 216.652344 56.671875 216.203125 L 39.59375 204.367188 C 39.289062 204.15625 39.128906 203.863281 39.128906 203.585938 L 39.128906 200.617188 C 39.128906 200.894531 39.289062 201.191406 39.605469 201.398438 L 56.6875 213.234375 C 57.320312 213.683594 58.335938 213.683594 58.972656 213.234375 L 65.984375 208.339844 C 66.300781 208.113281 66.460938 207.835938 66.460938 207.542969 Z M 66.460938 207.542969 "/>
<path style=" stroke:none;fill-rule:nonzero;fill:rgb(100%,81.568627%,42.352941%);fill-opacity:1;" d="M 65.984375 206.75 C 66.621094 207.191406 66.625 207.894531 65.992188 208.335938 L 58.964844 213.234375 C 58.332031 213.675781 57.320312 213.675781 56.683594 213.234375 L 39.601562 201.402344 C 38.972656 200.964844 38.96875 200.261719 39.601562 199.820312 L 46.628906 194.921875 C 47.261719 194.480469 48.273438 194.480469 48.902344 194.914062 Z M 65.984375 206.75 "/>
</g>
<clipPath id="clip6">
  <rect x="0" y="0" width="200" height="240"/>
</clipPath>
<g id="surface20" clip-path="url(#clip6)">
<path style=" stroke:none;fill-rule:nonzero;fill:rgb(99.607843%,73.72549%,12.156863%);fill-opacity:1;" d="M 66.460938 200.46875 L 66.460938 203.457031 C 66.460938 203.734375 66.300781 204.011719 65.984375 204.238281 L 58.957031 209.128906 C 58.320312 209.582031 57.308594 209.582031 56.671875 209.128906 L 39.59375 197.296875 C 39.289062 197.085938 39.128906 196.792969 39.128906 196.515625 L 39.128906 193.546875 C 39.128906 193.824219 39.289062 194.117188 39.605469 194.328125 L 56.6875 206.160156 C 57.320312 206.613281 58.335938 206.613281 58.972656 206.160156 L 65.984375 201.269531 C 66.300781 201.042969 66.460938 200.765625 66.460938 200.46875 Z M 66.460938 200.46875 "/>
<path style=" stroke:none;fill-rule:nonzero;fill:rgb(100%,81.568627%,42.352941%);fill-opacity:1;" d="M 65.984375 199.675781 C 66.621094 200.117188 66.625 200.824219 65.992188 201.265625 L 58.964844 206.164062 C 58.332031 206.605469 57.320312 206.605469 56.683594 206.164062 L 39.601562 194.328125 C 38.972656 193.894531 38.96875 193.191406 39.601562 192.75 L 46.628906 187.851562 C 47.261719 187.410156 48.273438 187.410156 48.902344 187.84375 Z M 65.984375 199.675781 "/>
</g>
<clipPath id="clip7">
  <rect x="0" y="0" width="200" height="240"/>
</clipPath>
<g id="surface23" clip-path="url(#clip7)">
<path style=" stroke:none;fill-rule:nonzero;fill:rgb(99.607843%,73.72549%,12.156863%);fill-opacity:1;" d="M 66.460938 193.398438 L 66.460938 196.382812 C 66.460938 196.660156 66.300781 196.9375 65.984375 197.164062 L 58.957031 202.058594 C 58.320312 202.511719 57.308594 202.511719 56.671875 202.058594 L 39.59375 190.222656 C 39.289062 190.015625 39.128906 189.71875 39.128906 189.441406 L 39.128906 186.472656 C 39.128906 186.75 39.289062 187.046875 39.605469 187.253906 L 56.6875 199.089844 C 57.320312 199.542969 58.335938 199.542969 58.972656 199.089844 L 65.984375 194.195312 C 66.300781 193.972656 66.460938 193.691406 66.460938 193.398438 Z M 66.460938 193.398438 "/>
<path style=" stroke:none;fill-rule:nonzero;fill:rgb(100%,81.568627%,42.352941%);fill-opacity:1;" d="M 65.984375 192.605469 C 66.621094 193.046875 66.625 193.75 65.992188 194.191406 L 58.964844 199.09375 C 58.332031 199.535156 57.320312 199.535156 56.683594 199.09375 L 39.601562 187.257812 C 38.972656 186.824219 38.96875 186.121094 39.601562 185.679688 L 46.628906 180.777344 C 47.261719 180.335938 48.273438 180.335938 48.902344 180.773438 Z M 65.984375 192.605469 "/>
</g>
<clipPath id="clip8">
  <rect x="0" y="0" width="200" height="240"/>
</clipPath>
<g id="surface26" clip-path="url(#clip8)">
<path style=" stroke:none;fill-rule:nonzero;fill:rgb(99.607843%,73.72549%,12.156863%);fill-opacity:1;" d="M 66.460938 186.328125 L 66.460938 189.3125 C 66.460938 189.589844 66.300781 189.867188 65.984375 190.09375 L 58.957031 194.988281 C 58.320312 195.4375 57.308594 195.4375 56.671875 194.988281 L 39.59375 183.152344 C 39.289062 182.945312 39.128906 182.648438 39.128906 182.371094 L 39.128906 179.402344 C 39.128906 179.679688 39.289062 179.976562 39.605469 180.183594 L 56.6875 192.019531 C 57.320312 192.46875 58.335938 192.46875 58.972656 192.019531 L 65.984375 187.125 C 66.300781 186.898438 66.460938 186.621094 66.460938 186.328125 Z M 66.460938 186.328125 "/>
<path style=" stroke:none;fill-rule:nonzero;fill:rgb(100%,81.568627%,42.352941%);fill-opacity:1;" d="M 65.984375 185.535156 C 66.621094 185.976562 66.625 186.679688 65.992188 187.121094 L 58.964844 192.019531 C 58.332031 192.460938 57.320312 192.460938 56.683594 192.019531 L 39.601562 180.1875 C 38.972656 179.753906 38.96875 179.046875 39.601562 178.605469 L 46.628906 173.707031 C 47.261719 173.265625 48.273438 173.265625 48.902344 173.699219 Z M 65.984375 185.535156 "/>
</g>
<clipPath id="clip9">
  <rect x="0" y="0" width="200" height="240"/>
</clipPath>
<g id="surface29" clip-path="url(#clip9)">
<path style=" stroke:none;fill-rule:nonzero;fill:rgb(99.607843%,73.72549%,12.156863%);fill-opacity:1;" d="M 66.460938 179.253906 L 66.460938 182.242188 C 66.460938 182.519531 66.300781 182.796875 65.984375 183.023438 L 58.957031 187.914062 C 58.320312 188.367188 57.308594 188.367188 56.671875 187.914062 L 39.59375 176.082031 C 39.289062 175.871094 39.128906 175.578125 39.128906 175.300781 L 39.128906 172.332031 C 39.128906 172.609375 39.289062 172.902344 39.605469 173.113281 L 56.6875 184.945312 C 57.320312 185.398438 58.335938 185.398438 58.972656 184.945312 L 65.984375 180.054688 C 66.300781 179.828125 66.460938 179.550781 66.460938 179.253906 Z M 66.460938 179.253906 "/>
<path style=" stroke:none;fill-rule:nonzero;fill:rgb(100%,81.568627%,42.352941%);fill-opacity:1;" d="M 65.984375 178.464844 C 66.621094 178.90625 66.625 179.609375 65.992188 180.050781 L 58.964844 184.949219 C 58.332031 185.390625 57.320312 185.390625 56.683594 184.949219 L 39.601562 173.117188 C 38.972656 172.679688 38.96875 171.976562 39.601562 171.535156 L 46.628906 166.636719 C 47.261719 166.195312 48.273438 166.195312 48.902344 166.628906 Z M 65.984375 178.464844 "/>
</g>
<clipPath id="clip10">
  <rect x="0" y="0" width="200" height="240"/>
</clipPath>
<g id="surface32" clip-path="url(#clip10)">
<path style=" stroke:none;fill-rule:nonzero;fill:rgb(99.607843%,73.72549%,12.156863%);fill-opacity:1;" d="M 66.460938 172.183594 L 66.460938 175.167969 C 66.460938 175.445312 66.300781 175.726562 65.984375 175.949219 L 58.957031 180.84375 C 58.320312 181.296875 57.308594 181.296875 56.671875 180.84375 L 39.59375 169.007812 C 39.289062 168.800781 39.128906 168.503906 39.128906 168.226562 L 39.128906 165.257812 C 39.128906 165.539062 39.289062 165.832031 39.605469 166.039062 L 56.6875 177.875 C 57.320312 178.328125 58.335938 178.328125 58.972656 177.875 L 65.984375 172.980469 C 66.300781 172.757812 66.460938 172.480469 66.460938 172.183594 Z M 66.460938 172.183594 "/>
<path style=" stroke:none;fill-rule:nonzero;fill:rgb(100%,81.568627%,42.352941%);fill-opacity:1;" d="M 65.984375 171.390625 C 66.621094 171.832031 66.625 172.535156 65.992188 172.976562 L 58.964844 177.878906 C 58.332031 178.320312 57.320312 178.320312 56.683594 177.878906 L 39.601562 166.042969 C 38.972656 165.609375 38.96875 164.90625 39.601562 164.464844 L 46.628906 159.5625 C 47.261719 159.121094 48.273438 159.121094 48.902344 159.558594 Z M 65.984375 171.390625 "/>
</g>
<clipPath id="clip11">
  <rect x="0" y="0" width="200" height="240"/>
</clipPath>
<g id="surface35" clip-path="url(#clip11)">
<path style=" stroke:none;fill-rule:nonzero;fill:rgb(99.607843%,73.72549%,12.156863%);fill-opacity:1;" d="M 66.460938 165.113281 L 66.460938 168.097656 C 66.460938 168.375 66.300781 168.652344 65.984375 168.878906 L 58.957031 173.773438 C 58.320312 174.222656 57.308594 174.222656 56.671875 173.773438 L 39.59375 161.9375 C 39.289062 161.730469 39.128906 161.433594 39.128906 161.15625 L 39.128906 158.1875 C 39.128906 158.464844 39.289062 158.761719 39.605469 158.96875 L 56.6875 170.804688 C 57.320312 171.253906 58.335938 171.253906 58.972656 170.804688 L 65.984375 165.910156 C 66.300781 165.683594 66.460938 165.40625 66.460938 165.113281 Z M 66.460938 165.113281 "/>
<path style=" stroke:none;fill-rule:nonzero;fill:rgb(100%,81.568627%,42.352941%);fill-opacity:1;" d="M 65.984375 164.320312 C 66.621094 164.761719 66.625 165.464844 65.992188 165.90625 L 58.964844 170.808594 C 58.332031 171.25 57.320312 171.25 56.683594 170.808594 L 39.601562 158.972656 C 38.972656 158.539062 38.96875 157.832031 39.601562 157.390625 L 46.628906 152.492188 C 47.261719 152.050781 48.273438 152.050781 48.902344 152.484375 Z M 65.984375 164.320312 "/>
</g>
<clipPath id="clip12">
  <rect x="0" y="0" width="200" height="240"/>
</clipPath>
<g id="surface38" clip-path="url(#clip12)">
<path style=" stroke:none;fill-rule:nonzero;fill:rgb(99.607843%,73.72549%,12.156863%);fill-opacity:1;" d="M 66.460938 158.039062 L 66.460938 161.027344 C 66.460938 161.304688 66.300781 161.582031 65.984375 161.808594 L 58.957031 166.699219 C 58.320312 167.152344 57.308594 167.152344 56.671875 166.699219 L 39.59375 154.867188 C 39.289062 154.65625 39.128906 154.363281 39.128906 154.085938 L 39.128906 151.117188 C 39.128906 151.394531 39.289062 151.6875 39.605469 151.898438 L 56.6875 163.734375 C 57.320312 164.183594 58.335938 164.183594 58.972656 163.734375 L 65.984375 158.839844 C 66.300781 158.613281 66.460938 158.335938 66.460938 158.039062 Z M 66.460938 158.039062 "/>
<path style=" stroke:none;fill-rule:nonzero;fill:rgb(100%,81.568627%,42.352941%);fill-opacity:1;" d="M 65.984375 157.25 C 66.621094 157.691406 66.625 158.394531 65.992188 158.835938 L 58.964844 163.734375 C 58.332031 164.175781 57.320312 164.175781 56.683594 163.734375 L 39.601562 151.902344 C 38.972656 151.464844 38.96875 150.761719 39.601562 150.320312 L 46.628906 145.421875 C 47.261719 144.980469 48.273438 144.980469 48.902344 145.414062 Z M 65.984375 157.25 "/>
</g>
<clipPath id="clip13">
  <rect x="0" y="0" width="200" height="240"/>
</clipPath>
<g id="surface41" clip-path="url(#clip13)">
<path style=" stroke:none;fill-rule:nonzero;fill:rgb(99.607843%,73.72549%,12.156863%);fill-opacity:1;" d="M 66.460938 150.96875 L 66.460938 153.953125 C 66.460938 154.234375 66.300781 154.511719 65.984375 154.734375 L 58.957031 159.628906 C 58.320312 160.082031 57.308594 160.082031 56.671875 159.628906 L 39.59375 147.792969 C 39.289062 147.585938 39.128906 147.292969 39.128906 147.011719 L 39.128906 144.046875 C 39.128906 144.324219 39.289062 144.617188 39.605469 144.824219 L 56.6875 156.660156 C 57.320312 157.113281 58.335938 157.113281 58.972656 156.660156 L 65.984375 151.765625 C 66.300781 151.542969 66.460938 151.265625 66.460938 150.96875 Z M 66.460938 150.96875 "/>
<path style=" stroke:none;fill-rule:nonzero;fill:rgb(100%,81.568627%,42.352941%);fill-opacity:1;" d="M 65.984375 150.175781 C 66.621094 150.617188 66.625 151.324219 65.992188 151.761719 L 58.964844 156.664062 C 58.332031 157.105469 57.320312 157.105469 56.683594 156.664062 L 39.601562 144.828125 C 38.972656 144.394531 38.96875 143.691406 39.601562 143.25 L 46.628906 138.347656 C 47.261719 137.90625 48.273438 137.90625 48.902344 138.34375 Z M 65.984375 150.175781 "/>
</g>
<clipPath id="clip14">
  <rect x="0" y="0" width="200" height="240"/>
</clipPath>
<g id="surface44" clip-path="url(#clip14)">
<path style=" stroke:none;fill-rule:nonzero;fill:rgb(69.019608%,72.156863%,81.176471%);fill-opacity:1;" d="M 127.71875 49.816406 C 127.71875 50.769531 127.152344 51.765625 126.09375 52.535156 C 123.980469 53.984375 120.507812 53.984375 118.394531 52.535156 C 117.339844 51.765625 116.8125 50.8125 116.8125 49.863281 L 116.8125 34.285156 L 127.679688 34.242188 Z M 127.71875 49.816406 "/>
<path style=" stroke:none;fill-rule:nonzero;fill:rgb(29.803922%,36.078431%,45.882353%);fill-opacity:1;" d="M 118.402344 31.589844 C 116.285156 33.058594 116.273438 35.457031 118.398438 36.9375 C 120.511719 38.414062 123.953125 38.410156 126.074219 36.9375 C 128.210938 35.457031 128.234375 33.066406 126.117188 31.589844 C 123.992188 30.109375 120.542969 30.109375 118.402344 31.589844 Z M 118.402344 31.589844 "/>
</g>
<clipPath id="clip15">
  <rect x="0" y="0" width="200" height="240"/>
</clipPath>
<g id="surface47" clip-path="url(#clip15)">
<path style=" stroke:none;fill-rule:nonzero;fill:rgb(11.372549%,16.078431%,26.27451%);fill-opacity:1;" d="M 126.054688 18.933594 L 126.054688 33.5625 C 126.054688 34.242188 125.679688 34.964844 124.925781 35.460938 C 123.453125 36.503906 121.039062 36.503906 119.566406 35.460938 C 118.8125 34.964844 118.472656 34.285156 118.472656 33.605469 L 118.433594 18.933594 Z M 126.054688 18.933594 "/>
<path style=" stroke:none;fill-rule:nonzero;fill:rgb(29.803922%,36.078431%,45.882353%);fill-opacity:1;" d="M 119.5625 17.078125 C 118.082031 18.105469 118.074219 19.78125 119.558594 20.816406 C 121.039062 21.847656 123.441406 21.84375 124.921875 20.816406 C 126.417969 19.78125 126.429688 18.109375 124.953125 17.078125 C 123.46875 16.042969 121.058594 16.042969 119.5625 17.078125 Z M 119.5625 17.078125 "/>
</g>
<clipPath id="clip16">
  <rect x="0" y="0" width="200" height="240"/>
</clipPath>
<g id="surface50" clip-path="url(#clip16)">
<path style=" stroke:none;fill-rule:nonzero;fill:rgb(87.058824%,87.45098%,98.431373%);fill-opacity:1;" d="M 119.871094 15.816406 L 119.878906 18.859375 C 119.878906 19.28125 120.109375 19.703125 120.570312 20.023438 C 121.496094 20.671875 123.003906 20.667969 123.929688 20.023438 C 124.402344 19.699219 124.636719 19.269531 124.636719 18.84375 L 124.632812 15.800781 C 124.632812 16.226562 124.371094 16.027344 123.898438 16.355469 C 122.972656 16.996094 121.546875 17.390625 120.621094 16.746094 C 120.160156 16.425781 119.875 16.238281 119.871094 15.816406 Z M 119.871094 15.816406 "/>
</g>
<clipPath id="clip17">
  <rect x="0" y="0" width="200" height="240"/>
</clipPath>
<g id="surface53" clip-path="url(#clip17)">
<path style=" stroke:none;fill-rule:nonzero;fill:rgb(11.372549%,16.078431%,26.27451%);fill-opacity:1;" d="M 121.273438 11.996094 L 121.277344 15.769531 C 121.277344 15.941406 121.371094 16.117188 121.5625 16.25 C 121.941406 16.515625 122.5625 16.511719 122.945312 16.25 C 123.136719 16.113281 123.234375 15.9375 123.234375 15.761719 L 123.234375 11.988281 C 123.234375 12.164062 123.125 11.9375 122.929688 12.070312 C 122.546875 12.335938 121.941406 12.742188 121.5625 12.476562 C 121.371094 12.34375 121.273438 12.171875 121.273438 11.996094 Z M 121.273438 11.996094 "/>
<path style=" stroke:none;fill-rule:nonzero;fill:rgb(29.803922%,36.078431%,45.882353%);fill-opacity:1;" d="M 121.5625 11.515625 C 121.179688 11.777344 121.179688 12.210938 121.5625 12.476562 C 121.941406 12.742188 122.558594 12.742188 122.941406 12.476562 C 123.328125 12.210938 123.332031 11.78125 122.949219 11.515625 C 122.566406 11.246094 121.945312 11.246094 121.5625 11.515625 Z M 121.5625 11.515625 "/>
</g>
<clipPath id="clip18">
  <rect x="0" y="0" width="200" height="240"/>
</clipPath>
<g id="surface56" clip-path="url(#clip18)">
<path style=" stroke:none;fill-rule:nonzero;fill:rgb(69.019608%,72.156863%,81.176471%);fill-opacity:1;" d="M 109.78125 62.234375 C 109.78125 63.183594 109.214844 64.179688 108.160156 64.949219 C 106.046875 66.398438 102.574219 66.398438 100.460938 64.949219 C 99.40625 64.179688 98.875 63.230469 98.875 62.277344 L 98.875 46.703125 L 109.746094 46.65625 Z M 109.78125 62.234375 "/>
<path style=" stroke:none;fill-rule:nonzero;fill:rgb(29.803922%,36.078431%,45.882353%);fill-opacity:1;" d="M 100.46875 44.007812 C 98.347656 45.476562 98.335938 47.875 100.460938 49.355469 C 102.578125 50.832031 106.019531 50.824219 108.136719 49.355469 C 110.277344 47.875 110.296875 45.484375 108.183594 44.007812 C 106.058594 42.523438 102.609375 42.523438 100.46875 44.007812 Z M 100.46875 44.007812 "/>
</g>
<clipPath id="clip19">
  <rect x="0" y="0" width="200" height="240"/>
</clipPath>
<g id="surface59" clip-path="url(#clip19)">
<path style=" stroke:none;fill-rule:nonzero;fill:rgb(11.372549%,16.078431%,26.27451%);fill-opacity:1;" d="M 108.121094 31.351562 L 108.121094 45.976562 C 108.121094 46.65625 107.746094 47.382812 106.988281 47.878906 C 105.519531 48.921875 103.101562 48.921875 101.632812 47.878906 C 100.875 47.382812 100.535156 46.703125 100.535156 46.023438 L 100.5 31.351562 Z M 108.121094 31.351562 "/>
<path style=" stroke:none;fill-rule:nonzero;fill:rgb(29.803922%,36.078431%,45.882353%);fill-opacity:1;" d="M 101.628906 29.496094 C 100.148438 30.523438 100.140625 32.199219 101.625 33.234375 C 103.101562 34.265625 105.507812 34.257812 106.988281 33.234375 C 108.484375 32.199219 108.496094 30.527344 107.019531 29.496094 C 105.535156 28.460938 103.125 28.460938 101.628906 29.496094 Z M 101.628906 29.496094 "/>
</g>
<clipPath id="clip20">
  <rect x="0" y="0" width="200" height="240"/>
</clipPath>
<g id="surface62" clip-path="url(#clip20)">
<path style=" stroke:none;fill-rule:nonzero;fill:rgb(87.058824%,87.45098%,98.431373%);fill-opacity:1;" d="M 101.9375 28.234375 L 101.941406 31.273438 C 101.945312 31.695312 102.175781 32.117188 102.636719 32.441406 C 103.5625 33.085938 105.066406 33.085938 105.996094 32.441406 C 106.46875 32.113281 106.703125 31.6875 106.703125 31.257812 L 106.699219 28.214844 C 106.699219 28.644531 106.4375 28.441406 105.964844 28.769531 C 105.039062 29.414062 103.613281 29.808594 102.6875 29.164062 C 102.226562 28.839844 101.9375 28.65625 101.9375 28.234375 Z M 101.9375 28.234375 "/>
</g>
<clipPath id="clip21">
  <rect x="0" y="0" width="200" height="240"/>
</clipPath>
<g id="surface65" clip-path="url(#clip21)">
<path style=" stroke:none;fill-rule:nonzero;fill:rgb(11.372549%,16.078431%,26.27451%);fill-opacity:1;" d="M 103.339844 24.414062 L 103.34375 28.183594 C 103.34375 28.359375 103.4375 28.53125 103.628906 28.664062 C 104.007812 28.929688 104.628906 28.929688 105.007812 28.664062 C 105.203125 28.53125 105.300781 28.355469 105.300781 28.179688 L 105.296875 24.40625 C 105.296875 24.582031 105.1875 24.351562 104.996094 24.488281 C 104.613281 24.75 104.007812 25.160156 103.625 24.894531 C 103.4375 24.761719 103.339844 24.585938 103.339844 24.414062 Z M 103.339844 24.414062 "/>
<path style=" stroke:none;fill-rule:nonzero;fill:rgb(29.803922%,36.078431%,45.882353%);fill-opacity:1;" d="M 103.628906 23.929688 C 103.246094 24.195312 103.242188 24.625 103.625 24.894531 C 104.007812 25.160156 104.625 25.15625 105.007812 24.894531 C 105.390625 24.625 105.394531 24.195312 105.015625 23.929688 C 104.632812 23.664062 104.011719 23.664062 103.628906 23.929688 Z M 103.628906 23.929688 "/>
</g>
<clipPath id="clip22">
  <rect x="0" y="0" width="200" height="240"/>
</clipPath>
<g id="surface68" clip-path="url(#clip22)">
<path style=" stroke:none;fill-rule:nonzero;fill:rgb(69.019608%,72.156863%,81.176471%);fill-opacity:1;" d="M 91.847656 74.652344 C 91.847656 75.601562 91.28125 76.597656 90.226562 77.367188 C 88.113281 78.816406 84.640625 78.816406 82.527344 77.367188 C 81.46875 76.597656 80.941406 75.648438 80.941406 74.695312 L 80.941406 59.117188 L 91.808594 59.074219 Z M 91.847656 74.652344 "/>
<path style=" stroke:none;fill-rule:nonzero;fill:rgb(29.803922%,36.078431%,45.882353%);fill-opacity:1;" d="M 82.535156 56.421875 C 80.414062 57.890625 80.402344 60.289062 82.527344 61.773438 C 84.644531 63.246094 88.082031 63.242188 90.203125 61.773438 C 92.34375 60.289062 92.363281 57.898438 90.246094 56.421875 C 88.121094 54.941406 84.671875 54.941406 82.535156 56.421875 Z M 82.535156 56.421875 "/>
</g>
<clipPath id="clip23">
  <rect x="0" y="0" width="200" height="240"/>
</clipPath>
<g id="surface71" clip-path="url(#clip23)">
<path style=" stroke:none;fill-rule:nonzero;fill:rgb(11.372549%,16.078431%,26.27451%);fill-opacity:1;" d="M 90.1875 43.765625 L 90.1875 58.394531 C 90.1875 59.074219 89.808594 59.796875 89.054688 60.296875 C 87.582031 61.335938 85.167969 61.335938 83.695312 60.296875 C 82.941406 59.796875 82.601562 59.117188 82.601562 58.4375 L 82.566406 43.765625 Z M 90.1875 43.765625 "/>
<path style=" stroke:none;fill-rule:nonzero;fill:rgb(29.803922%,36.078431%,45.882353%);fill-opacity:1;" d="M 83.695312 41.914062 C 82.214844 42.9375 82.207031 44.613281 83.691406 45.648438 C 85.167969 46.679688 87.570312 46.675781 89.054688 45.648438 C 90.546875 44.613281 90.5625 42.945312 89.085938 41.914062 C 87.597656 40.878906 85.1875 40.878906 83.695312 41.914062 Z M 83.695312 41.914062 "/>
</g>
<clipPath id="clip24">
  <rect x="0" y="0" width="200" height="240"/>
</clipPath>
<g id="surface74" clip-path="url(#clip24)">
<path style=" stroke:none;fill-rule:nonzero;fill:rgb(87.058824%,87.45098%,98.431373%);fill-opacity:1;" d="M 84.003906 40.648438 L 84.007812 43.691406 C 84.007812 44.113281 84.238281 44.535156 84.703125 44.859375 C 85.628906 45.503906 87.132812 45.5 88.058594 44.859375 C 88.53125 44.53125 88.769531 44.101562 88.769531 43.675781 L 88.761719 40.632812 C 88.765625 41.058594 88.503906 40.859375 88.03125 41.1875 C 87.101562 41.828125 85.679688 42.226562 84.753906 41.578125 C 84.289062 41.257812 84.003906 41.070312 84.003906 40.648438 Z M 84.003906 40.648438 "/>
</g>
<clipPath id="clip25">
  <rect x="0" y="0" width="200" height="240"/>
</clipPath>
<g id="surface77" clip-path="url(#clip25)">
<path style=" stroke:none;fill-rule:nonzero;fill:rgb(11.372549%,16.078431%,26.27451%);fill-opacity:1;" d="M 85.40625 36.828125 L 85.40625 40.601562 C 85.40625 40.773438 85.503906 40.949219 85.695312 41.082031 C 86.074219 41.347656 86.691406 41.347656 87.074219 41.082031 C 87.269531 40.945312 87.367188 40.769531 87.367188 40.59375 L 87.363281 36.824219 C 87.363281 37 87.253906 36.769531 87.058594 36.902344 C 86.679688 37.167969 86.070312 37.574219 85.691406 37.308594 C 85.5 37.175781 85.40625 37.003906 85.40625 36.828125 Z M 85.40625 36.828125 "/>
<path style=" stroke:none;fill-rule:nonzero;fill:rgb(29.803922%,36.078431%,45.882353%);fill-opacity:1;" d="M 85.691406 36.347656 C 85.3125 36.609375 85.308594 37.042969 85.691406 37.308594 C 86.070312 37.574219 86.691406 37.574219 87.074219 37.308594 C 87.457031 37.042969 87.460938 36.613281 87.082031 36.347656 C 86.699219 36.082031 86.078125 36.082031 85.691406 36.347656 Z M 85.691406 36.347656 "/>
</g>
</defs>
<g id="surface1">
<use xlink:href="#surface5"/>
<use xlink:href="#surface8"/>
<use xlink:href="#surface11"/>
<use xlink:href="#surface14"/>
<path style=" stroke:none;fill-rule:nonzero;fill:rgb(78.823529%,80.784314%,88.627451%);fill-opacity:1;" d="M 103.5625 92.738281 L 103.671875 138.011719 L 98.742188 141.425781 L 98.636719 96.152344 Z M 103.5625 92.738281 "/>
<path style=" stroke:none;fill-rule:nonzero;fill:rgb(78.823529%,80.784314%,88.627451%);fill-opacity:1;" d="M 114.414062 85.222656 L 114.519531 130.496094 L 109.59375 133.910156 L 109.484375 88.636719 Z M 114.414062 85.222656 "/>
<path style=" stroke:none;fill-rule:nonzero;fill:rgb(78.823529%,80.784314%,88.627451%);fill-opacity:1;" d="M 125.28125 77.695312 L 125.386719 122.96875 L 120.457031 126.382812 L 120.351562 81.109375 Z M 125.28125 77.695312 "/>
<path style=" stroke:none;fill-rule:nonzero;fill:rgb(78.823529%,80.784314%,88.627451%);fill-opacity:1;" d="M 136.144531 70.167969 L 136.253906 115.441406 L 131.324219 118.855469 L 131.214844 73.582031 Z M 136.144531 70.167969 "/>
<path style=" stroke:none;fill-rule:nonzero;fill:rgb(78.823529%,80.784314%,88.627451%);fill-opacity:1;" d="M 146.996094 62.648438 L 147.101562 107.921875 L 142.171875 111.335938 L 142.066406 66.066406 Z M 146.996094 62.648438 "/>
<path style=" stroke:none;fill-rule:nonzero;fill:rgb(11.372549%,16.078431%,26.27451%);fill-opacity:1;" d="M 135.6875 109.609375 L 110.074219 127.359375 C 107.628906 129.035156 106.171875 126.253906 107.566406 122.484375 L 120.292969 88.089844 C 120.898438 86.453125 121.851562 85.195312 122.800781 84.550781 C 123.753906 83.863281 124.707031 83.824219 125.308594 84.625 L 138.164062 101.308594 C 139.5625 103.136719 138.132812 107.933594 135.6875 109.609375 Z M 135.6875 109.609375 "/>
<path style=" stroke:none;fill-rule:nonzero;fill:rgb(99.607843%,73.72549%,12.156863%);fill-opacity:1;" d="M 136.746094 104.121094 C 136.503906 105.808594 135.539062 107.640625 134.417969 108.410156 L 110.394531 125.039062 C 110.035156 125.28125 109.753906 125.328125 109.59375 125.328125 C 109.390625 125.328125 109.269531 125.28125 109.152344 125.089844 C 108.871094 124.558594 108.828125 123.402344 109.390625 121.90625 L 121.320312 89.660156 C 121.761719 88.457031 122.484375 87.394531 123.289062 86.867188 C 123.570312 86.671875 123.851562 86.527344 124.09375 86.527344 C 124.253906 86.527344 124.375 86.578125 124.453125 86.722656 L 136.503906 102.386719 C 136.746094 102.675781 136.824219 103.351562 136.746094 104.121094 Z M 136.746094 104.121094 "/>
<path style=" stroke:none;fill-rule:nonzero;fill:rgb(11.372549%,16.078431%,26.27451%);fill-opacity:1;" d="M 125.195312 93.265625 L 122.386719 95.21875 L 120.1875 109.394531 L 124.078125 104.019531 L 123.695312 109.394531 L 122.386719 110.078125 L 123.902344 114.113281 L 126.273438 108.28125 L 125.027344 108.988281 L 126.65625 97.90625 L 123.105469 102.292969 Z M 125.195312 93.265625 "/>
<use xlink:href="#surface17"/>
<use xlink:href="#surface20"/>
<use xlink:href="#surface23"/>
<use xlink:href="#surface26"/>
<use xlink:href="#surface29"/>
<use xlink:href="#surface32"/>
<use xlink:href="#surface35"/>
<use xlink:href="#surface38"/>
<use xlink:href="#surface41"/>
<path style=" stroke:none;fill-rule:nonzero;fill:rgb(97.647059%,65.882353%,23.921569%);fill-opacity:1;" d="M 51.519531 143.835938 C 51.519531 144.464844 51.144531 145.179688 50.472656 145.628906 C 49.054688 146.613281 46.589844 146.613281 45.09375 145.628906 C 44.421875 145.089844 44.046875 144.464844 44.046875 143.746094 C 44.046875 143.117188 44.421875 142.402344 45.09375 141.953125 C 46.589844 140.96875 48.980469 140.96875 50.398438 141.953125 C 51.144531 142.492188 51.519531 143.117188 51.519531 143.835938 Z M 51.519531 143.835938 "/>
<path style=" stroke:none;fill-rule:nonzero;fill:rgb(29.803922%,36.078431%,45.882353%);fill-opacity:1;" d="M 60.960938 103.144531 C 59.167969 101.910156 57.816406 102.828125 57.808594 105.191406 C 57.804688 107.558594 59.144531 110.410156 60.941406 111.640625 C 62.605469 112.785156 63.957031 111.78125 63.960938 109.417969 C 63.96875 107.050781 62.625 104.289062 60.960938 103.144531 Z M 60.960938 103.144531 "/>
<path style=" stroke:none;fill-rule:nonzero;fill:rgb(11.372549%,16.078431%,26.27451%);fill-opacity:1;" d="M 62.734375 108.777344 C 62.734375 109.230469 62.621094 109.589844 62.472656 109.863281 L 61.832031 110.316406 L 60.507812 111.265625 L 55.90625 114.527344 C 55.226562 114.980469 54.621094 115.570312 54.054688 116.15625 C 51.71875 118.738281 50.359375 122.453125 50.359375 126.300781 L 50.359375 128.882812 L 50.394531 139.386719 L 50.394531 143.507812 C 50.394531 143.914062 50.132812 144.414062 49.679688 144.730469 C 49.492188 144.867188 49.226562 145.003906 49 145.046875 C 48.8125 145.136719 48.621094 145.183594 48.394531 145.183594 C 48.394531 145.183594 48.394531 145.230469 48.359375 145.183594 C 47.980469 145.273438 47.566406 145.273438 47.152344 145.183594 C 46.699219 145.136719 46.28125 144.957031 45.90625 144.730469 C 45.414062 144.367188 45.152344 143.914062 45.152344 143.417969 L 45.152344 139.386719 L 45.113281 126.300781 C 45.113281 119.28125 48.207031 112.714844 53.226562 109.09375 L 54.054688 108.503906 L 57.832031 105.832031 L 59.378906 104.746094 C 59.753906 104.566406 60.246094 104.65625 60.773438 104.972656 C 61.90625 105.652344 62.734375 107.328125 62.734375 108.777344 Z M 62.734375 108.777344 "/>
<path style=" stroke:none;fill-rule:nonzero;fill:rgb(97.647059%,65.882353%,23.921569%);fill-opacity:1;" d="M 61.054688 149.722656 C 61.054688 150.367188 60.671875 151.105469 59.980469 151.5625 C 58.523438 152.574219 55.996094 152.574219 54.460938 151.5625 C 53.773438 151.011719 53.390625 150.367188 53.390625 149.632812 C 53.390625 148.988281 53.773438 148.253906 54.460938 147.792969 C 55.996094 146.78125 58.449219 146.78125 59.90625 147.792969 C 60.671875 148.34375 61.054688 148.988281 61.054688 149.722656 Z M 61.054688 149.722656 "/>
<path style=" stroke:none;fill-rule:nonzero;fill:rgb(29.803922%,36.078431%,45.882353%);fill-opacity:1;" d="M 70.777344 108.488281 C 69.121094 107.347656 67.871094 108.195312 67.863281 110.382812 C 67.859375 112.570312 69.101562 115.207031 70.761719 116.347656 C 72.300781 117.40625 73.550781 116.476562 73.554688 114.289062 C 73.5625 112.101562 72.320312 109.546875 70.777344 108.488281 Z M 70.777344 108.488281 "/>
<path style=" stroke:none;fill-rule:nonzero;fill:rgb(11.372549%,16.078431%,26.27451%);fill-opacity:1;" d="M 72.585938 113.640625 C 72.585938 114.140625 72.480469 114.582031 72.269531 114.898438 L 71.695312 115.273438 L 65.351562 119.804688 C 61.890625 122.257812 59.792969 126.726562 59.792969 131.574219 L 59.84375 149.464844 C 59.84375 149.90625 59.582031 150.410156 59.109375 150.722656 C 58.113281 151.417969 56.382812 151.417969 55.335938 150.722656 C 54.863281 150.347656 54.601562 149.90625 54.601562 149.402344 L 54.546875 131.574219 C 54.546875 124.523438 57.640625 117.980469 62.675781 114.394531 L 68.96875 109.925781 L 69.703125 109.359375 L 69.808594 109.359375 C 70.070312 109.359375 70.382812 109.421875 70.699219 109.675781 C 71.746094 110.429688 72.585938 112.128906 72.585938 113.640625 Z M 72.585938 113.640625 "/>
<path style=" stroke:none;fill-rule:nonzero;fill:rgb(100%,100%,100%);fill-opacity:1;" d="M 100.175781 169.214844 L 100.175781 169.21875 C 95.738281 169.21875 92.140625 173.761719 92.140625 179.367188 C 92.140625 173.761719 88.542969 169.21875 84.105469 169.21875 L 84.105469 169.214844 C 88.542969 169.214844 92.140625 164.671875 92.140625 159.066406 C 92.140625 164.671875 95.738281 169.214844 100.175781 169.214844 Z M 100.175781 169.214844 "/>
<use xlink:href="#surface44"/>
<use xlink:href="#surface47"/>
<use xlink:href="#surface50"/>
<path style=" stroke:none;fill-rule:nonzero;fill:rgb(95.294118%,94.509804%,98.823529%);fill-opacity:1;" d="M 120.570312 14.644531 C 119.644531 15.285156 119.636719 16.335938 120.566406 16.984375 C 121.492188 17.628906 122.996094 17.625 123.925781 16.984375 C 124.859375 16.335938 124.871094 15.289062 123.945312 14.644531 C 123.015625 13.996094 121.503906 13.996094 120.570312 14.644531 Z M 120.570312 14.644531 "/>
<use xlink:href="#surface53"/>
<use xlink:href="#surface56"/>
<use xlink:href="#surface59"/>
<use xlink:href="#surface62"/>
<path style=" stroke:none;fill-rule:nonzero;fill:rgb(95.294118%,94.509804%,98.823529%);fill-opacity:1;" d="M 102.636719 27.058594 C 101.707031 27.703125 101.703125 28.75 102.632812 29.398438 C 103.558594 30.046875 105.0625 30.042969 105.988281 29.398438 C 106.925781 28.75 106.933594 27.707031 106.007812 27.058594 C 105.078125 26.414062 103.570312 26.414062 102.636719 27.058594 Z M 102.636719 27.058594 "/>
<use xlink:href="#surface65"/>
<use xlink:href="#surface68"/>
<use xlink:href="#surface71"/>
<use xlink:href="#surface74"/>
<path style=" stroke:none;fill-rule:nonzero;fill:rgb(95.294118%,94.509804%,98.823529%);fill-opacity:1;" d="M 84.699219 39.476562 C 83.773438 40.121094 83.769531 41.167969 84.699219 41.816406 C 85.625 42.460938 87.128906 42.457031 88.054688 41.816406 C 88.992188 41.167969 89 40.121094 88.074219 39.476562 C 87.144531 38.828125 85.636719 38.828125 84.699219 39.476562 Z M 84.699219 39.476562 "/>
<use xlink:href="#surface77"/>
</g>
</svg>
